<svg width="20" height="20" viewBox="0 0 20 20" fill="none" xmlns="http://www.w3.org/2000/svg">
<path d="M0 4H18C19.1046 4 20 4.89543 20 6V16C20 17.1046 19.1046 18 18 18H2C0.895431 18 0 17.1046 0 16V4Z" fill="#F25E5E"/>
<path d="M0 3C0 2.44772 0.447715 2 1 2H8C9.10457 2 10 2.89543 10 4C10 5.10457 9.10457 6 8 6H0V3Z" fill="#E23232"/>
<path d="M5.18516 13.2C5.18516 12.9867 5.12182 12.8067 4.99516 12.66C4.86849 12.5067 4.70849 12.3633 4.51516 12.23C4.32849 12.0967 4.12182 11.96 3.89516 11.82C3.67516 11.68 3.46849 11.5167 3.27516 11.33C3.08849 11.1433 2.93182 10.9233 2.80516 10.67C2.67849 10.4167 2.61516 10.1067 2.61516 9.74C2.61516 9.4 2.66516 9.11333 2.76516 8.88C2.87182 8.64 3.01516 8.44667 3.19516 8.3C3.37516 8.14667 3.58849 8.03667 3.83516 7.97C4.08182 7.89667 4.34516 7.86 4.62516 7.86C4.96516 7.86 5.28182 7.89333 5.57516 7.96C5.86849 8.02667 6.11182 8.11667 6.30516 8.23L5.91516 9.34C5.80182 9.26 5.63182 9.18667 5.40516 9.12C5.18516 9.05333 4.94516 9.02 4.68516 9.02C4.42516 9.02 4.22516 9.07333 4.08516 9.18C3.94516 9.28667 3.87516 9.44333 3.87516 9.65C3.87516 9.83667 3.93849 10.0033 4.06516 10.15C4.19182 10.29 4.34849 10.4267 4.53516 10.56C4.72849 10.6933 4.93516 10.8333 5.15516 10.98C5.38182 11.12 5.58849 11.2867 5.77516 11.48C5.96849 11.6667 6.12849 11.89 6.25516 12.15C6.38182 12.4033 6.44516 12.7067 6.44516 13.06C6.44516 13.4133 6.39182 13.72 6.28516 13.98C6.18516 14.24 6.03849 14.4567 5.84516 14.63C5.65849 14.7967 5.43182 14.9233 5.16516 15.01C4.89849 15.0967 4.60182 15.14 4.27516 15.14C3.86182 15.14 3.49849 15.1 3.18516 15.02C2.87849 14.94 2.64182 14.85 2.47516 14.75L2.88516 13.62C3.01849 13.7 3.20182 13.78 3.43516 13.86C3.66849 13.94 3.91849 13.98 4.18516 13.98C4.85182 13.98 5.18516 13.72 5.18516 13.2ZM9.57969 13.2C9.57969 12.9867 9.51635 12.8067 9.38969 12.66C9.26302 12.5067 9.10302 12.3633 8.90969 12.23C8.72302 12.0967 8.51635 11.96 8.28969 11.82C8.06969 11.68 7.86302 11.5167 7.66969 11.33C7.48302 11.1433 7.32635 10.9233 7.19969 10.67C7.07302 10.4167 7.00969 10.1067 7.00969 9.74C7.00969 9.4 7.05969 9.11333 7.15969 8.88C7.26635 8.64 7.40969 8.44667 7.58969 8.3C7.76969 8.14667 7.98302 8.03667 8.22969 7.97C8.47635 7.89667 8.73969 7.86 9.01969 7.86C9.35969 7.86 9.67635 7.89333 9.96969 7.96C10.263 8.02667 10.5064 8.11667 10.6997 8.23L10.3097 9.34C10.1964 9.26 10.0264 9.18667 9.79969 9.12C9.57969 9.05333 9.33969 9.02 9.07969 9.02C8.81969 9.02 8.61969 9.07333 8.47969 9.18C8.33969 9.28667 8.26969 9.44333 8.26969 9.65C8.26969 9.83667 8.33302 10.0033 8.45969 10.15C8.58635 10.29 8.74302 10.4267 8.92969 10.56C9.12302 10.6933 9.32969 10.8333 9.54969 10.98C9.77635 11.12 9.98302 11.2867 10.1697 11.48C10.363 11.6667 10.523 11.89 10.6497 12.15C10.7764 12.4033 10.8397 12.7067 10.8397 13.06C10.8397 13.4133 10.7864 13.72 10.6797 13.98C10.5797 14.24 10.433 14.4567 10.2397 14.63C10.053 14.7967 9.82635 14.9233 9.55969 15.01C9.29302 15.0967 8.99635 15.14 8.66969 15.14C8.25635 15.14 7.89302 15.1 7.57969 15.02C7.27302 14.94 7.03635 14.85 6.86969 14.75L7.27969 13.62C7.41302 13.7 7.59635 13.78 7.82969 13.86C8.06302 13.94 8.31302 13.98 8.57969 13.98C9.24635 13.98 9.57969 13.72 9.57969 13.2ZM16.0042 11.39L16.1442 10.05H16.0942L15.7242 11.25L14.5842 13.71H14.1642L12.9542 11.24L12.5842 10.03H12.5242L12.7142 11.38V15H11.5242V8H12.7342L14.1942 11.03L14.4342 11.9H14.4742L14.7042 11.01L16.0742 8H17.2642V15H16.0042V11.39Z" fill="white"/>
</svg>
