<svg width="20" height="20" viewBox="0 0 20 20" fill="none" xmlns="http://www.w3.org/2000/svg">
<path d="M0 4H18C19.1046 4 20 4.89543 20 6V16C20 17.1046 19.1046 18 18 18H2C0.895431 18 0 17.1046 0 16V4Z" fill="#BA5EF2"/>
<path d="M0 3C0 2.44772 0.447715 2 1 2H8C9.10457 2 10 2.89543 10 4C10 5.10457 9.10457 6 8 6H0V3Z" fill="#9F32E2"/>
<path d="M3.59941 8H7.09941V9.16H4.85941V10.88H6.88941V12.04H4.85941V13.84H7.13941V15H3.59941V8ZM10.7263 13.42H9.07629L8.66629 15H7.41629L9.44629 7.95H10.4363L12.4763 15H11.1563L10.7263 13.42ZM9.34629 12.38H10.5063L10.1063 10.75L9.94629 9.65H9.90629L9.73629 10.76L9.34629 12.38ZM15.3561 13.2C15.3561 12.9867 15.2927 12.8067 15.1661 12.66C15.0394 12.5067 14.8794 12.3633 14.6861 12.23C14.4994 12.0967 14.2927 11.96 14.0661 11.82C13.8461 11.68 13.6394 11.5167 13.4461 11.33C13.2594 11.1433 13.1027 10.9233 12.9761 10.67C12.8494 10.4167 12.7861 10.1067 12.7861 9.74C12.7861 9.4 12.8361 9.11333 12.9361 8.88C13.0427 8.64 13.1861 8.44667 13.3661 8.3C13.5461 8.14667 13.7594 8.03667 14.0061 7.97C14.2527 7.89667 14.5161 7.86 14.7961 7.86C15.1361 7.86 15.4527 7.89333 15.7461 7.96C16.0394 8.02667 16.2827 8.11667 16.4761 8.23L16.0861 9.34C15.9727 9.26 15.8027 9.18667 15.5761 9.12C15.3561 9.05333 15.1161 9.02 14.8561 9.02C14.5961 9.02 14.3961 9.07333 14.2561 9.18C14.1161 9.28667 14.0461 9.44333 14.0461 9.65C14.0461 9.83667 14.1094 10.0033 14.2361 10.15C14.3627 10.29 14.5194 10.4267 14.7061 10.56C14.8994 10.6933 15.1061 10.8333 15.3261 10.98C15.5527 11.12 15.7594 11.2867 15.9461 11.48C16.1394 11.6667 16.2994 11.89 16.4261 12.15C16.5527 12.4033 16.6161 12.7067 16.6161 13.06C16.6161 13.4133 16.5627 13.72 16.4561 13.98C16.3561 14.24 16.2094 14.4567 16.0161 14.63C15.8294 14.7967 15.6027 14.9233 15.3361 15.01C15.0694 15.0967 14.7727 15.14 14.4461 15.14C14.0327 15.14 13.6694 15.1 13.3561 15.02C13.0494 14.94 12.8127 14.85 12.6461 14.75L13.0561 13.62C13.1894 13.7 13.3727 13.78 13.6061 13.86C13.8394 13.94 14.0894 13.98 14.3561 13.98C15.0227 13.98 15.3561 13.72 15.3561 13.2Z" fill="white"/>
</svg>
