<svg width="20" height="20" viewBox="0 0 20 20" fill="none" xmlns="http://www.w3.org/2000/svg">
<path d="M0 4H18C19.1046 4 20 4.89543 20 6V16C20 17.1046 19.1046 18 18 18H2C0.895431 18 0 17.1046 0 16V4Z" fill="#F2AE5E"/>
<path d="M0 3C0 2.44772 0.447715 2 1 2H8C9.10457 2 10 2.89543 10 4C10 5.10457 9.10457 6 8 6H0V3Z" fill="#E29C32"/>
<path d="M6.19102 13.2C6.19102 12.9867 6.12768 12.8067 6.00102 12.66C5.87435 12.5067 5.71435 12.3633 5.52102 12.23C5.33435 12.0967 5.12768 11.96 4.90102 11.82C4.68102 11.68 4.47435 11.5167 4.28102 11.33C4.09435 11.1433 3.93768 10.9233 3.81102 10.67C3.68435 10.4167 3.62102 10.1067 3.62102 9.74C3.62102 9.4 3.67102 9.11333 3.77102 8.88C3.87768 8.64 4.02102 8.44667 4.20102 8.3C4.38102 8.14667 4.59435 8.03667 4.84102 7.97C5.08768 7.89667 5.35102 7.86 5.63102 7.86C5.97102 7.86 6.28768 7.89333 6.58102 7.96C6.87435 8.02667 7.11768 8.11667 7.31102 8.23L6.92102 9.34C6.80768 9.26 6.63768 9.18667 6.41102 9.12C6.19102 9.05333 5.95102 9.02 5.69102 9.02C5.43102 9.02 5.23102 9.07333 5.09102 9.18C4.95102 9.28667 4.88102 9.44333 4.88102 9.65C4.88102 9.83667 4.94435 10.0033 5.07102 10.15C5.19768 10.29 5.35435 10.4267 5.54102 10.56C5.73435 10.6933 5.94102 10.8333 6.16102 10.98C6.38768 11.12 6.59435 11.2867 6.78102 11.48C6.97435 11.6667 7.13435 11.89 7.26102 12.15C7.38768 12.4033 7.45102 12.7067 7.45102 13.06C7.45102 13.4133 7.39768 13.72 7.29102 13.98C7.19102 14.24 7.04435 14.4567 6.85102 14.63C6.66435 14.7967 6.43768 14.9233 6.17102 15.01C5.90435 15.0967 5.60768 15.14 5.28102 15.14C4.86768 15.14 4.50435 15.1 4.19102 15.02C3.88435 14.94 3.64768 14.85 3.48102 14.75L3.89102 13.62C4.02435 13.7 4.20768 13.78 4.44102 13.86C4.67435 13.94 4.92435 13.98 5.19102 13.98C5.85768 13.98 6.19102 13.72 6.19102 13.2ZM8.24555 8H9.50555V15H8.24555V8ZM14.9984 11.39L15.1384 10.05H15.0884L14.7184 11.25L13.5784 13.71H13.1584L11.9484 11.24L11.5784 10.03H11.5184L11.7084 11.38V15H10.5184V8H11.7284L13.1884 11.03L13.4284 11.9H13.4684L13.6984 11.01L15.0684 8H16.2584V15H14.9984V11.39Z" fill="white"/>
</svg>
